<?xml version="1.0" encoding="UTF-8"?>
<svg width="220" height="48" viewBox="0 0 220 48" fill="none" xmlns="http://www.w3.org/2000/svg">
  <defs>
    <linearGradient id="g" x1="0" y1="0" x2="220" y2="48" gradientUnits="userSpaceOnUse">
      <stop offset="0%" stop-color="#0B6E4F"/>
      <stop offset="100%" stop-color="#22D3EE"/>
    </linearGradient>
  </defs>
  <rect x="1" y="1" width="218" height="46" rx="10" fill="url(#g)" opacity="0.12" stroke="#0B6E4F"/>
  <g transform="translate(14,10)">
    <path d="M12 24c-4.418 0-8-3.582-8-8s3.582-8 8-8c2.761 0 5.2 1.402 6.64 3.52C20.9 10.2 23 10 25 10c4.418 0 8 3.582 8 8 0 0.676-0.084 1.334-0.242 1.962C31.6 18.8 29.4 18 27 18c-4.418 0-8 3.582-8 8 0 0.685 0.086 1.351 0.248 1.99C17.6 27.8 15 26.2 13.5 24.4 13.03 24.462 12.52 24.5 12 24.5Z" fill="#0B6E4F" opacity="0.9"/>
  </g>
  <text x="60" y="30" font-family="Inter, Segoe UI, Arial, sans-serif" font-size="16" font-weight="700" fill="#0B6E4F">Holy Family Polymers</text>
</svg>
